<svg width="27" height="30" viewBox="0 0 27 30" fill="none" xmlns="http://www.w3.org/2000/svg">
<circle cx="17" cy="10" r="10" fill="white"/>
<g filter="url(#filter0_di_7307_17474)">
<g clip-path="url(#clip0_7307_17474)">
<path d="M15.7615 13.9433C15.6607 14.0447 15.5231 14.1013 15.3803 14.1013C15.2374 14.1013 15.0998 14.0447 14.999 13.9433L11.9543 10.8981C11.6383 10.5821 11.6383 10.0697 11.9543 9.75434L12.3355 9.37299C12.6516 9.05701 13.1634 9.05701 13.4794 9.37299L15.3803 11.274L20.5168 6.13737C20.8329 5.8214 21.3451 5.8214 21.6606 6.13737L22.0419 6.51872C22.3578 6.8347 22.3578 7.34698 22.0419 7.66246L15.7615 13.9433Z" fill="#12DF64"/>
</g>
</g>
<defs>
<filter id="filter0_di_7307_17474" x="0.717285" y="2.71704" width="24.5615" height="26.5615" filterUnits="userSpaceOnUse" color-interpolation-filters="sRGB">
<feFlood flood-opacity="0" result="BackgroundImageFix"/>
<feColorMatrix in="SourceAlpha" type="matrix" values="0 0 0 0 0 0 0 0 0 0 0 0 0 0 0 0 0 0 127 0" result="hardAlpha"/>
<feOffset dx="-4" dy="7"/>
<feGaussianBlur stdDeviation="3.5"/>
<feColorMatrix type="matrix" values="0 0 0 0 0 0 0 0 0 0 0 0 0 0 0 0 0 0 0.25 0"/>
<feBlend mode="normal" in2="BackgroundImageFix" result="effect1_dropShadow_7307_17474"/>
<feBlend mode="normal" in="SourceGraphic" in2="effect1_dropShadow_7307_17474" result="shape"/>
<feColorMatrix in="SourceAlpha" type="matrix" values="0 0 0 0 0 0 0 0 0 0 0 0 0 0 0 0 0 0 127 0" result="hardAlpha"/>
<feOffset dx="3" dy="-2"/>
<feGaussianBlur stdDeviation="2"/>
<feComposite in2="hardAlpha" operator="arithmetic" k2="-1" k3="1"/>
<feColorMatrix type="matrix" values="0 0 0 0 0.183767 0 0 0 0 0.604167 0 0 0 0 0.326703 0 0 0 1 0"/>
<feBlend mode="normal" in2="shape" result="effect2_innerShadow_7307_17474"/>
</filter>
<clipPath id="clip0_7307_17474">
<rect width="10.5616" height="10.5616" fill="white" transform="translate(11.7173 4.71704)"/>
</clipPath>
</defs>
</svg>
