<svg width="13" height="12" viewBox="0 0 13 12" fill="none" xmlns="http://www.w3.org/2000/svg">
<path d="M7.66175 1.11572C8.08749 1.11572 8.51322 1.11572 8.93757 1.11572C9.61791 1.11572 10.2983 1.11572 10.9786 1.11572C11.1344 1.11572 11.2889 1.11572 11.4447 1.11572C11.2596 0.930679 11.0732 0.744245 10.8882 0.559203C10.8882 0.984939 10.8882 1.41068 10.8882 1.83502C10.8882 2.51536 10.8882 3.19571 10.8882 3.87605C10.8882 4.03187 10.8882 4.18631 10.8882 4.34213C10.8882 4.63291 11.1442 4.91256 11.4447 4.89865C11.7466 4.88474 12.0012 4.65378 12.0012 4.34213C12.0012 3.9164 12.0012 3.49066 12.0012 3.06632C12.0012 2.38597 12.0012 1.70563 12.0012 1.02529C12.0012 0.869462 12.0012 0.715028 12.0012 0.559203C12.0012 0.258684 11.7466 0.00268555 11.4447 0.00268555C11.0189 0.00268555 10.5932 0.00268555 10.1689 0.00268555C9.48852 0.00268555 8.80818 0.00268555 8.12784 0.00268555C7.97201 0.00268555 7.81758 0.00268555 7.66175 0.00268555C7.37097 0.00268555 7.09132 0.258684 7.10523 0.559203C7.11776 0.859723 7.34871 1.11572 7.66175 1.11572Z" fill="#999999"/>
<path d="M5.56122 7.23062C5.76992 7.02192 5.97722 6.81462 6.18591 6.60593C6.68539 6.10645 7.18486 5.60698 7.68573 5.10611C8.29094 4.5009 8.89476 3.89708 9.49998 3.29186C10.0231 2.76874 10.5448 2.247 11.068 1.72388C11.3226 1.46927 11.58 1.21884 11.8304 0.961446C11.8346 0.957272 11.8373 0.95449 11.8415 0.950316C12.0474 0.744404 12.0627 0.365972 11.8415 0.162843C11.6189 -0.0416772 11.2739 -0.0569814 11.0541 0.162843C10.8454 0.371537 10.6381 0.57884 10.4294 0.787534C9.92989 1.28701 9.43041 1.78648 8.92955 2.28735C8.32433 2.89256 7.71912 3.49778 7.1153 4.10299C6.59217 4.62612 6.07044 5.14785 5.54731 5.67098C5.2927 5.92558 5.03531 6.17602 4.78488 6.43341C4.78071 6.43758 4.77792 6.44036 4.77375 6.44454C4.56784 6.65045 4.55253 7.02888 4.77375 7.23201C4.99636 7.43375 5.3414 7.45044 5.56122 7.23062Z" fill="#999999"/>
<path d="M10.8896 6.84795C10.8896 7.2709 10.8896 7.69247 10.8896 8.11542C10.8896 8.77072 10.8896 9.42602 10.8896 10.0827C10.8896 10.2566 10.9035 10.4389 10.8798 10.6128C10.8868 10.5641 10.8937 10.514 10.8993 10.4653C10.8868 10.546 10.8659 10.6225 10.8353 10.6991C10.8534 10.6545 10.8729 10.61 10.891 10.5655C10.8576 10.6448 10.8144 10.7171 10.763 10.7867C10.7922 10.7491 10.8214 10.7116 10.8506 10.674C10.7977 10.7408 10.7379 10.8006 10.6711 10.8535C10.7087 10.8243 10.7463 10.7951 10.7838 10.7658C10.7156 10.8173 10.6419 10.8604 10.5626 10.8938C10.6071 10.8757 10.6516 10.8563 10.6962 10.8382C10.621 10.8688 10.5431 10.8897 10.4624 10.9022C10.5111 10.8952 10.5612 10.8883 10.6099 10.8827C10.4958 10.898 10.3776 10.8924 10.2621 10.8924C10.0464 10.8924 9.83218 10.8924 9.61653 10.8924C8.89862 10.8924 8.18071 10.8924 7.4628 10.8924C6.59046 10.8924 5.71673 10.8924 4.84439 10.8924C4.09309 10.8924 3.34179 10.8924 2.59049 10.8924C2.2371 10.8924 1.88371 10.8952 1.53171 10.8924C1.48441 10.8924 1.43711 10.8897 1.3898 10.8827C1.4385 10.8897 1.48858 10.8966 1.53728 10.9022C1.45658 10.8897 1.38006 10.8688 1.30354 10.8382C1.34806 10.8563 1.39258 10.8757 1.43711 10.8938C1.3578 10.8604 1.28545 10.8173 1.21589 10.7658C1.25346 10.7951 1.29102 10.8243 1.32859 10.8535C1.2618 10.8006 1.20198 10.7408 1.14911 10.674C1.17833 10.7116 1.20754 10.7491 1.23676 10.7867C1.18528 10.7185 1.14215 10.6448 1.10876 10.5655C1.12685 10.61 1.14633 10.6545 1.16441 10.6991C1.1338 10.6239 1.11293 10.546 1.10041 10.4653C1.10737 10.514 1.11433 10.5641 1.11989 10.6128C1.10459 10.4987 1.11015 10.3804 1.11015 10.265C1.11015 10.0493 1.11015 9.83506 1.11015 9.61941C1.11015 8.9015 1.11015 8.18359 1.11015 7.46569C1.11015 6.59334 1.11015 5.71961 1.11015 4.84727C1.11015 4.09597 1.11015 3.34467 1.11015 2.59337C1.11015 2.23998 1.10737 1.8866 1.11015 1.5346C1.11015 1.48729 1.11293 1.43999 1.11989 1.39269C1.11293 1.44138 1.10598 1.49147 1.10041 1.54016C1.11293 1.45947 1.1338 1.38295 1.16441 1.30643C1.14633 1.35095 1.12685 1.39547 1.10876 1.43999C1.14215 1.36069 1.18528 1.28834 1.23676 1.21877C1.20754 1.25634 1.17833 1.2939 1.14911 1.33147C1.20198 1.26469 1.2618 1.20486 1.32859 1.15199C1.29102 1.18121 1.25346 1.21043 1.21589 1.23964C1.28406 1.18817 1.3578 1.14504 1.43711 1.11164C1.39258 1.12973 1.34806 1.14921 1.30354 1.1673C1.37867 1.13669 1.45658 1.11582 1.53728 1.1033C1.48858 1.11025 1.4385 1.11721 1.3898 1.12277C1.53728 1.1033 1.69032 1.11304 1.8378 1.11304C2.12441 1.11304 2.41101 1.11304 2.69901 1.11304C3.36405 1.11304 4.0277 1.11304 4.69273 1.11304C4.84717 1.11304 5.00021 1.11304 5.15464 1.11304C5.44543 1.11304 5.72508 0.857037 5.71116 0.556518C5.69725 0.254607 5.46629 0 5.15464 0C4.77621 0 4.39778 0 4.01935 0C3.3877 0 2.75466 0 2.12301 0C1.94075 0 1.75849 0 1.57763 0C1.1505 0 0.735893 0.148868 0.435374 0.460518C0.152941 0.754081 0.00128988 1.14225 0.00128988 1.54851C0.00128988 1.63338 0.00128988 1.71825 0.00128988 1.80173C0.00128988 2.19685 0.00128988 2.59059 0.00128988 2.98572C0.00128988 3.57841 0.00128988 4.1711 0.00128988 4.76379C0.00128988 5.43161 0.00128988 6.10083 0.00128988 6.76865C0.00128988 7.39055 0.00128988 8.01107 0.00128988 8.63298C0.00128988 9.08515 0.00128988 9.53732 0.00128988 9.99088C0.00128988 10.2538 -0.00984043 10.5168 0.0332897 10.777C0.081985 11.0705 0.24894 11.3613 0.461808 11.5658C0.570329 11.6702 0.698328 11.7676 0.836067 11.833C1.02946 11.9234 1.19919 11.9707 1.41067 11.993C1.48998 12.0013 1.56789 11.9999 1.64719 11.9999C1.97415 11.9999 2.30249 11.9999 2.62945 11.9999C3.18457 11.9999 3.74109 11.9999 4.29622 11.9999C4.95708 11.9999 5.61795 11.9999 6.27881 11.9999C6.92159 11.9999 7.56298 11.9999 8.20575 11.9999C8.71218 11.9999 9.22001 11.9999 9.72644 11.9999C9.96992 11.9999 10.2134 11.9999 10.4569 11.9999C10.8743 11.9985 11.293 11.8357 11.5796 11.5269C11.6798 11.4184 11.7758 11.2931 11.8384 11.1582C11.9275 10.9648 11.972 10.802 11.9956 10.5919C12.0026 10.5321 12.0026 10.4723 12.0026 10.4124C12.0026 9.92132 12.0026 9.43019 12.0026 8.93907C12.0026 8.34359 12.0026 7.74812 12.0026 7.15264C12.0026 7.05108 12.0026 6.94812 12.0026 6.84656C12.0026 6.55578 11.7466 6.27613 11.4461 6.29004C11.1442 6.30395 10.8896 6.53491 10.8896 6.84795Z" fill="#999999"/>
</svg>
