<svg width="20" height="20" viewBox="0 0 20 20" fill="none" xmlns="http://www.w3.org/2000/svg">
<path d="M6.26601 7.49841H3.4493C3.32429 7.49841 3.223 7.59975 3.223 7.72471V16.7736C3.223 16.8986 3.32429 16.9999 3.4493 16.9999H6.26601C6.39102 16.9999 6.49232 16.8986 6.49232 16.7736V7.72471C6.49232 7.59975 6.39102 7.49841 6.26601 7.49841Z" fill="#666666"/>
<path d="M4.85868 3C3.83379 3 3 3.83289 3 4.85664C3 5.88085 3.83379 6.71405 4.85868 6.71405C5.88275 6.71405 6.71586 5.8808 6.71586 4.85664C6.71591 3.83289 5.88275 3 4.85868 3Z" fill="#666666"/>
<path d="M13.4305 7.27354C12.2992 7.27354 11.463 7.75987 10.9557 8.31246V7.72474C10.9557 7.59978 10.8544 7.49844 10.7294 7.49844H8.03192C7.90691 7.49844 7.80561 7.59978 7.80561 7.72474V16.7736C7.80561 16.8987 7.90691 17 8.03192 17H10.8425C10.9675 17 11.0688 16.8987 11.0688 16.7736V12.2965C11.0688 10.7879 11.4786 10.2001 12.5302 10.2001C13.6756 10.2001 13.7666 11.1423 13.7666 12.3742V16.7737C13.7666 16.8987 13.8679 17 13.9929 17H16.8045C16.9295 17 17.0308 16.8987 17.0308 16.7737V11.8102C17.0308 9.56686 16.6031 7.27354 13.4305 7.27354Z" fill="#666666"/>
</svg>
