<svg width="100" height="22" viewBox="0 0 100 22" fill="none" xmlns="http://www.w3.org/2000/svg">
<path d="M20.2808 8.53044H16.7558C16.5223 8.52386 16.2907 8.57541 16.0811 8.68066C15.8715 8.78591 15.6901 8.94167 15.5526 9.13451L13.1118 12.3252L11.4468 6.01322C11.3712 5.75796 11.2246 5.53057 11.025 5.35857C10.8254 5.18658 10.5324 5.07735 10.2733 5.04413C9.72111 4.95691 9.26114 5.15105 8.91466 5.60087L3.26065 12.9947C3.26065 12.9947 3.22935 13.0303 3.20825 13.0406C3.18714 13.051 3.14041 13.0537 3.14041 13.0537H0.196668C0.0676512 12.3895 0 11.7028 0 11C0 5.2018 4.60407 0.501465 10.2835 0.501465C15.1297 0.501465 19.193 3.92388 20.2808 8.53044Z" fill="#0065FF"/>
<path d="M20.5582 11.4377H17.5214C17.5002 11.4359 17.479 11.44 17.4599 11.4495C17.4408 11.4591 17.4246 11.4737 17.413 11.4918L13.6589 16.3898C13.5134 16.5854 13.3217 16.7402 13.1018 16.8397C12.8818 16.9392 12.6407 16.9801 12.4011 16.9588C12.1614 16.9374 11.9309 16.8544 11.7312 16.7174C11.5315 16.5805 11.369 16.3942 11.2589 16.1758C11.1831 16.007 11.124 15.8309 11.0825 15.65C10.669 14.1426 9.50434 9.67331 9.50434 9.67331L5.11807 15.394C4.98524 15.574 4.81238 15.7191 4.61376 15.8174C4.41515 15.9157 4.19648 15.9644 3.97581 15.9593H1.21744C2.95159 19.2565 6.36108 21.4985 10.2835 21.4985C15.8192 21.4985 20.3334 17.0329 20.5582 11.4377Z" fill="#0065FF"/>
<path d="M29.5728 17.2389C29.4482 17.2389 29.3422 17.1943 29.255 17.1052C29.1677 17.0161 29.1241 16.9079 29.1241 16.7806V15.6731C29.1241 15.5585 29.1428 15.4567 29.1802 15.3676C29.23 15.2784 29.2986 15.1702 29.3858 15.0429L34.1533 9.33351H29.7224C29.5977 9.33351 29.4918 9.28896 29.4045 9.19985C29.3173 9.09801 29.2737 8.98344 29.2737 8.85614V7.76772C29.2737 7.64042 29.3173 7.53221 29.4045 7.4431C29.4918 7.35399 29.5977 7.30944 29.7224 7.30944H36.8455C36.9702 7.30944 37.0761 7.35399 37.1634 7.4431C37.2506 7.53221 37.2942 7.64042 37.2942 7.76772V8.95161C37.2942 9.05345 37.2631 9.15529 37.2008 9.25713C37.1509 9.35897 37.0948 9.45445 37.0325 9.54356L32.3585 15.2148H37.2194C37.3441 15.2148 37.45 15.2594 37.5373 15.3485C37.6245 15.4376 37.6682 15.5521 37.6682 15.6922V16.7806C37.6682 16.9079 37.6245 17.0161 37.5373 17.1052C37.4625 17.1943 37.3566 17.2389 37.2194 17.2389H29.5728Z" fill="#1D1D1D"/>
<path d="M43.6577 17.4298C42.2618 17.4298 41.1525 17.0225 40.3298 16.2077C39.5197 15.393 39.0897 14.2346 39.0398 12.7324L39.0211 12.2551C39.0211 10.6638 39.4262 9.40989 40.2364 8.49333C41.059 7.57677 42.1932 7.11849 43.639 7.11849C45.1223 7.11849 46.2627 7.57677 47.0604 8.49333C47.8706 9.40989 48.2756 10.632 48.2756 12.1596V12.5606C48.2756 12.6879 48.232 12.7961 48.1448 12.8852C48.0575 12.9743 47.9454 13.0189 47.8082 13.0189H41.6012V13.1716C41.6261 13.8845 41.8131 14.4765 42.1621 14.9475C42.5235 15.4058 43.0158 15.6349 43.639 15.6349C44.3495 15.6349 44.9291 15.3421 45.3778 14.7565C45.4899 14.6165 45.5772 14.5337 45.6395 14.5083C45.7018 14.4701 45.8078 14.451 45.9573 14.451H47.6026C47.7148 14.451 47.8082 14.4828 47.883 14.5465C47.9703 14.6101 48.0139 14.6992 48.0139 14.8138C48.0139 15.1193 47.8332 15.4821 47.4717 15.9022C47.1227 16.3096 46.6179 16.666 45.9573 16.9715C45.2967 17.2771 44.5302 17.4298 43.6577 17.4298ZM45.6956 11.3958V11.3576C45.6956 10.6065 45.5086 10.0082 45.1347 9.56266C44.7733 9.10437 44.2747 8.87523 43.639 8.87523C43.0034 8.87523 42.5048 9.10437 42.1434 9.56266C41.7819 10.0082 41.6012 10.6065 41.6012 11.3576V11.3958H45.6956Z" fill="#1D1D1D"/>
<path d="M50.7085 17.2389C50.5838 17.2389 50.4779 17.1943 50.3906 17.1052C50.3034 17.0161 50.2598 16.9079 50.2598 16.7806V7.76772C50.2598 7.62769 50.3034 7.51948 50.3906 7.4431C50.4779 7.35399 50.5838 7.30944 50.7085 7.30944H52.2602C52.3973 7.30944 52.5033 7.35399 52.5781 7.4431C52.6653 7.51948 52.7089 7.62769 52.7089 7.76772V8.55062C53.4692 7.59586 54.51 7.11849 55.8312 7.11849C56.9778 7.11849 57.8877 7.50039 58.5608 8.26419C59.2338 9.02799 59.5704 10.0782 59.5704 11.4149V16.7806C59.5704 16.9079 59.5267 17.0161 59.4395 17.1052C59.3647 17.1943 59.2588 17.2389 59.1217 17.2389H57.439C57.3144 17.2389 57.2084 17.1943 57.1212 17.1052C57.0339 17.0161 56.9903 16.9079 56.9903 16.7806V11.5294C56.9903 10.7911 56.8096 10.2183 56.4481 9.81089C56.0991 9.3908 55.5943 9.18075 54.9338 9.18075C54.2981 9.18075 53.7871 9.3908 53.4007 9.81089C53.0143 10.231 52.8211 10.8038 52.8211 11.5294V16.7806C52.8211 16.9079 52.7775 17.0161 52.6902 17.1052C52.6155 17.1943 52.5095 17.2389 52.3724 17.2389H50.7085Z" fill="#1D1D1D"/>
<path d="M63.3126 17.2389C63.188 17.2389 63.082 17.1943 62.9948 17.1052C62.9075 17.0161 62.8639 16.9079 62.8639 16.7806V9.35261H61.3495C61.2249 9.35261 61.119 9.30805 61.0317 9.21894C60.9445 9.12983 60.9008 9.02163 60.9008 8.89433V7.76772C60.9008 7.64042 60.9445 7.53221 61.0317 7.4431C61.119 7.35399 61.2249 7.30944 61.3495 7.30944H62.8639V6.54563C62.8639 5.3872 63.1693 4.52792 63.78 3.9678C64.3908 3.39495 65.3131 3.10852 66.547 3.10852H67.8371C67.9617 3.10852 68.0676 3.15308 68.1549 3.24219C68.2421 3.3313 68.2858 3.4395 68.2858 3.5668V4.69341C68.2858 4.82071 68.2421 4.92892 68.1549 5.01803C68.0676 5.10714 67.9617 5.15169 67.8371 5.15169H66.6405C66.1544 5.15169 65.8117 5.27263 65.6122 5.5145C65.4128 5.75637 65.3131 6.13191 65.3131 6.64111V7.30944H67.6501C67.7747 7.30944 67.8807 7.35399 67.9679 7.4431C68.0552 7.53221 68.0988 7.64042 68.0988 7.76772V8.89433C68.0988 9.02163 68.0552 9.12983 67.9679 9.21894C67.8807 9.30805 67.7747 9.35261 67.6501 9.35261H65.3131V16.7806C65.3131 16.9079 65.2695 17.0161 65.1822 17.1052C65.1074 17.1943 65.0015 17.2389 64.8644 17.2389H63.3126Z" fill="#1D1D1D"/>
<path d="M73.1848 17.4298C72.0382 17.4298 71.1345 17.0479 70.4739 16.2841C69.8133 15.5203 69.483 14.4701 69.483 13.1334V7.76772C69.483 7.62769 69.5267 7.51948 69.6139 7.4431C69.7012 7.35399 69.8071 7.30944 69.9317 7.30944H71.6144C71.739 7.30944 71.845 7.35399 71.9322 7.4431C72.0194 7.53221 72.0631 7.64042 72.0631 7.76772V13.0189C72.0631 14.5847 72.7299 15.3676 74.0635 15.3676C74.7117 15.3676 75.2227 15.1575 75.5966 14.7374C75.983 14.3173 76.1762 13.7445 76.1762 13.0189V7.76772C76.1762 7.62769 76.2198 7.51948 76.3071 7.4431C76.3943 7.35399 76.5003 7.30944 76.6249 7.30944H78.2888C78.4259 7.30944 78.5319 7.35399 78.6067 7.4431C78.6939 7.51948 78.7375 7.62769 78.7375 7.76772V16.7806C78.7375 16.9079 78.6939 17.0161 78.6067 17.1052C78.5319 17.1943 78.4259 17.2389 78.2888 17.2389H76.7371C76.6124 17.2389 76.5065 17.1943 76.4192 17.1052C76.332 17.0161 76.2884 16.9079 76.2884 16.7806V15.9977C75.6028 16.9525 74.5683 17.4298 73.1848 17.4298Z" fill="#1D1D1D"/>
<path d="M84.9085 17.4298C83.9613 17.4298 83.1698 17.2834 82.5341 16.9906C81.8985 16.6979 81.4249 16.3605 81.1133 15.9786C80.8141 15.584 80.6645 15.2466 80.6645 14.9666C80.6645 14.8393 80.7019 14.7374 80.7767 14.661C80.864 14.5847 80.9637 14.5465 81.0759 14.5465H82.6089C82.7086 14.5465 82.7959 14.5974 82.8707 14.6992C82.933 14.7502 83.0701 14.8711 83.282 15.062C83.5063 15.253 83.7556 15.4057 84.0298 15.5203C84.3165 15.6222 84.6281 15.6731 84.9646 15.6731C85.4632 15.6731 85.8683 15.5776 86.1799 15.3867C86.4915 15.183 86.6473 14.8965 86.6473 14.5274C86.6473 14.2728 86.5725 14.0691 86.4229 13.9163C86.2858 13.7508 86.0303 13.6044 85.6564 13.4771C85.2949 13.3371 84.7465 13.1844 84.0111 13.0189C82.9517 12.7897 82.1665 12.4396 81.6554 11.9686C81.1569 11.4976 80.9076 10.8739 80.9076 10.0973C80.9076 9.58812 81.0572 9.11074 81.3563 8.66519C81.6554 8.20691 82.0979 7.83773 82.6837 7.55767C83.282 7.26488 83.9924 7.11849 84.8151 7.11849C85.6626 7.11849 86.3918 7.25852 87.0025 7.53858C87.6132 7.80591 88.0744 8.13053 88.386 8.51243C88.7101 8.89433 88.8721 9.23167 88.8721 9.52447C88.8721 9.63904 88.8285 9.74088 88.7412 9.82999C88.6664 9.90637 88.573 9.94456 88.4608 9.94456H87.0586C86.9215 9.94456 86.8155 9.89364 86.7407 9.7918C86.6535 9.72815 86.5102 9.61358 86.3107 9.44809C86.1238 9.26987 85.9119 9.12983 85.6751 9.02799C85.4383 8.92615 85.1516 8.87523 84.8151 8.87523C84.3539 8.87523 83.9987 8.97707 83.7494 9.18075C83.5001 9.38443 83.3755 9.65177 83.3755 9.98275C83.3755 10.2119 83.4316 10.4028 83.5437 10.5556C83.6684 10.7084 83.9114 10.8548 84.2729 10.9948C84.6343 11.1221 85.1765 11.2558 85.8994 11.3958C88.1429 11.8413 89.2647 12.8406 89.2647 14.3937C89.2647 15.2975 88.8783 16.0295 88.1055 16.5896C87.3452 17.1498 86.2796 17.4298 84.9085 17.4298Z" fill="#1D1D1D"/>
<path d="M95.3821 17.4298C93.9861 17.4298 92.8768 17.0225 92.0542 16.2077C91.244 15.393 90.814 14.2346 90.7642 12.7324L90.7455 12.2551C90.7455 10.6638 91.1506 9.40989 91.9607 8.49333C92.7833 7.57677 93.9176 7.11849 95.3634 7.11849C96.8466 7.11849 97.9871 7.57677 98.7848 8.49333C99.5949 9.40989 100 10.632 100 12.1596V12.5606C100 12.6879 99.9564 12.7961 99.8691 12.8852C99.7819 12.9743 99.6697 13.0189 99.5326 13.0189H93.3255V13.1716C93.3505 13.8845 93.5374 14.4765 93.8864 14.9475C94.2479 15.4058 94.7402 15.6349 95.3634 15.6349C96.0738 15.6349 96.6534 15.3421 97.1021 14.7565C97.2143 14.6165 97.3015 14.5337 97.3639 14.5083C97.4262 14.4701 97.5321 14.451 97.6817 14.451H99.3269C99.4391 14.451 99.5326 14.4828 99.6074 14.5465C99.6946 14.6101 99.7383 14.6992 99.7383 14.8138C99.7383 15.1193 99.5575 15.4821 99.1961 15.9022C98.8471 16.3096 98.3423 16.666 97.6817 16.9715C97.0211 17.2771 96.2546 17.4298 95.3821 17.4298ZM97.42 11.3958V11.3576C97.42 10.6065 97.233 10.0082 96.8591 9.56266C96.4976 9.10437 95.9991 8.87523 95.3634 8.87523C94.7277 8.87523 94.2292 9.10437 93.8677 9.56266C93.5063 10.0082 93.3255 10.6065 93.3255 11.3576V11.3958H97.42Z" fill="#1D1D1D"/>
</svg>
