<svg width="110" height="28" viewBox="0 0 110 28" fill="none" xmlns="http://www.w3.org/2000/svg">
<g clip-path="url(#clip0)">
<path d="M35.9871 12.6788H40.3032L35.8916 19.6994V20.3394H43.7216V18.303H39.1764L43.7216 11.2824V10.6424H35.9871V12.6788Z" fill="black"/>
<path d="M45.6511 15.5297C45.6511 18.4194 47.5226 20.5333 50.6356 20.5333C52.8891 20.5333 54.7989 19.3891 55.2191 17.4304L53.0992 17.0424C52.851 17.9151 51.9151 18.4969 50.6356 18.4969C49.2033 18.4969 48.172 17.7406 47.9811 16.0921H55.1808C55.2381 15.743 55.2764 15.3745 55.2764 15.0448C55.2764 12.3103 53.3666 10.4485 50.5974 10.4485C47.6945 10.4485 45.6511 12.6012 45.6511 15.5297ZM50.6165 12.3879C51.9343 12.3879 52.7555 13.0279 53.0228 14.2496H48.0574C48.3248 13.0279 49.2033 12.3879 50.6165 12.3879Z" fill="black"/>
<path d="M58.2563 20.3394H60.548V14.8509C60.548 13.1248 61.7321 12.6012 62.7634 12.6012C63.9093 12.6012 64.7686 13.3576 64.7686 14.8509V20.3394H67.0605V14.5018C67.0605 11.8254 65.3416 10.4485 63.3172 10.4485C62.0949 10.4485 61.1401 10.9527 60.4717 11.6703L60.3571 10.6424H58.2563V20.3394Z" fill="black"/>
<path d="M76.8118 12.6788V10.6424H73.6608V9.18785C73.6608 8.15997 74.1764 7.67513 75.1121 7.67513C75.456 7.67513 75.7042 7.7527 76.0289 7.84968L76.4873 5.87149C75.9143 5.67755 75.4178 5.59998 74.883 5.59998C72.9159 5.59998 71.369 7.01573 71.369 9.22665V10.6424H70.3568L69.1346 12.0388V12.6788H71.369V20.3394H73.6608V12.6788H76.8118Z" fill="black"/>
<path d="M81.1683 10.6424H78.8764V16.6739C78.8764 19.2145 80.5188 20.5333 82.5051 20.5333C83.7082 20.5333 84.6058 20.0097 85.2551 19.2727L85.3506 20.3394H87.4515V10.6424H85.1596V16.189C85.1596 17.8569 84.0711 18.3805 83.1162 18.3805C81.8557 18.3805 81.1683 17.7406 81.1683 16.4606V10.6424Z" fill="black"/>
<path d="M94.3632 20.5333C97.0561 20.5333 98.4501 19.137 98.4501 17.3527C98.4501 15.0837 96.5595 14.6375 94.9554 14.3855C93.7903 14.2109 92.759 14.1139 92.759 13.3187C92.759 12.7176 93.2556 12.2909 94.2486 12.2909C95.4519 12.2909 95.9293 12.9115 96.063 13.571L98.2019 13.1054C97.9728 11.5151 96.5978 10.4485 94.3251 10.4485C91.9951 10.4485 90.4673 11.7091 90.4673 13.4351C90.4673 15.7043 92.2243 16.1697 93.7903 16.4024C95.0125 16.5964 96.1393 16.6545 96.1393 17.4884C96.1393 18.2448 95.5282 18.6521 94.4779 18.6521C93.332 18.6521 92.6254 18.1479 92.4534 17.1976L90.1808 17.663C90.5628 19.486 91.8996 20.5333 94.3632 20.5333Z" fill="black"/>
<path d="M100.516 15.5297C100.516 18.4194 102.388 20.5333 105.501 20.5333C107.754 20.5333 109.664 19.3891 110.084 17.4304L107.964 17.0424C107.716 17.9151 106.78 18.4969 105.501 18.4969C104.068 18.4969 103.037 17.7406 102.846 16.0921H110.046C110.103 15.743 110.142 15.3745 110.142 15.0448C110.142 12.3103 108.232 10.4485 105.463 10.4485C102.56 10.4485 100.516 12.6012 100.516 15.5297ZM105.482 12.3879C106.799 12.3879 107.621 13.0279 107.888 14.2496H102.923C103.19 13.0279 104.068 12.3879 105.482 12.3879Z" fill="black"/>
<path d="M13.7499 28.0001C21.3438 28.0001 27.4998 21.7321 27.4998 14C27.4998 6.26807 21.3438 6.10352e-05 13.7499 6.10352e-05C6.15606 6.10352e-05 0 6.26807 0 14C0 21.7321 6.15606 28.0001 13.7499 28.0001Z" fill="white"/>
<path d="M0.49958 15.6988H3.75068L11.0763 6.1165C11.5499 5.50517 12.3016 5.22518 13.0502 5.37762C13.8004 5.53006 14.3763 6.09161 14.6008 6.8305L16.8772 15.1372L20.5012 10.7038C20.6889 10.4722 20.9264 10.2874 21.1952 10.1637C21.4639 10.0399 21.757 9.98045 22.0518 9.98984L26.927 10.0412C26.0926 7.14187 24.3576 4.59612 21.982 2.78575C19.6066 0.975373 16.7187 -0.00205447 13.7515 6.44731e-05C6.1508 6.44731e-05 0 6.26894 0 14.0156C0 14.6036 0.0504164 15.19 0.099305 15.75C0.224582 15.7251 0.349859 15.6988 0.49958 15.6988Z" fill="#0065FF"/>
<path d="M27.4898 13.9986L22.9478 13.9474L17.4294 20.6393C17.241 20.8652 17.0064 21.0467 16.742 21.1708C16.4776 21.2949 16.1898 21.3588 15.8986 21.358C15.7474 21.358 15.6237 21.3315 15.4708 21.3067C15.1119 21.2281 14.7814 21.0499 14.5158 20.7918C14.2502 20.5337 14.0599 20.2058 13.966 19.8445L11.7339 11.6653L6.26451 18.8955C5.88868 19.4089 5.31119 19.6905 4.68327 19.6905H1.14648C3.30369 24.5889 8.12076 27.9987 13.7154 27.9987C21.2931 27.9987 27.4654 21.7422 27.4898 13.9986C27.4898 13.9986 27.5143 13.9986 27.4898 13.9986Z" fill="#0065FF"/>
</g>
<defs>
<clipPath id="clip0">
<rect width="110" height="28" fill="white"/>
</clipPath>
</defs>
</svg>
