<svg width="20" height="20" viewBox="0 0 20 20" fill="none" xmlns="http://www.w3.org/2000/svg">
<path d="M18.2308 4.65738C17.59 4.93846 16.9072 5.12477 16.1954 5.21523C16.9277 4.778 17.4866 4.09092 17.7494 3.26277C17.0666 3.66985 16.3128 3.95738 15.5094 4.11785C14.8611 3.42754 13.9371 3 12.9291 3C10.9734 3 9.39892 4.58738 9.39892 6.53338C9.39892 6.81338 9.42262 7.08261 9.48077 7.33892C6.544 7.19569 3.94538 5.78815 2.19969 3.644C1.89492 4.17277 1.71615 4.778 1.71615 5.42954C1.71615 6.65292 2.34615 7.73738 3.28523 8.36523C2.71769 8.35446 2.16092 8.18969 1.68923 7.93015C1.68923 7.94092 1.68923 7.95492 1.68923 7.96892C1.68923 9.68554 2.91369 11.1114 4.51938 11.4398C4.23185 11.5185 3.91846 11.5562 3.59323 11.5562C3.36708 11.5562 3.13877 11.5432 2.92446 11.4958C3.38215 12.8948 4.68092 13.9232 6.22523 13.9566C5.02339 14.8968 3.49738 15.4632 1.84538 15.4632C1.55569 15.4632 1.27785 15.4503 1 15.4148C2.56477 16.4238 4.41923 17 6.41908 17C12.9194 17 16.4732 11.6154 16.4732 6.948C16.4732 6.79185 16.4678 6.64108 16.4603 6.49138C17.1614 5.99385 17.7505 5.37246 18.2308 4.65738Z" fill="#666666"/>
</svg>
